<svg xmlns="http://www.w3.org/2000/svg" width="29.77" height="16.278" viewBox="0 0 29.77 16.278"><defs><style>.a{fill:#fff;}</style></defs><path class="a" d="M31.49,27.141H29.91A12.718,12.718,0,0,0,17.685,14.435a.067.067,0,0,1,.069-.069l.824-1.374a.608.608,0,0,0-.549-.893h-1.58a.608.608,0,0,0-.549.893l.824,1.374a.067.067,0,0,0,.069.069A12.494,12.494,0,0,0,9.924,16.77h0A12.691,12.691,0,0,0,4.5,27.141H2.918a.618.618,0,0,0,0,1.236h28.5a.616.616,0,0,0,.618-.618C32.176,27.416,31.833,27.141,31.49,27.141Z" transform="translate(-2.3 -12.1)"/></svg>